<svg xmlns="http://www.w3.org/2000/svg" width="24" height="24" viewBox="0 0 24 24"><path d="M14.129 18.623c-.005.002-.503.168-.935.168-.239 0-.335-.05-.365-.071-.151-.105-.432-.303.049-1.26l.9-1.795c.534-1.066.613-2.096.22-2.903-.32-.66-.935-1.113-1.728-1.274a4.26 4.26 0 0 0-.862-.088c-1.664 0-2.785.972-2.832 1.014a.45.45 0 1 0 .443.764c.005-.002.503-.168.935-.168.237 0 .332.05.362.07.152.106.434.306-.046 1.262l-.9 1.795c-.535 1.066-.613 2.097-.22 2.903.32.66.934 1.113 1.729 1.274.282.057.573.088.859.088 1.665 0 2.787-.972 2.833-1.014a.452.452 0 0 0-.442-.765zM15.623 8.25a2.25 2.25 0 1 1-4.5 0 2.25 2.25 0 0 1 4.5 0z"/></svg>