<svg xmlns="http://www.w3.org/2000/svg" width="24" height="24" viewBox="0 0 24 24"><path d="M12.964 17.292V15.86a.245.245 0 0 0-.241-.249h-1.447a.244.244 0 0 0-.241.249v1.432c0 .136.106.249.241.249h1.447a.244.244 0 0 0 .241-.249zm-.015-2.818l.136-3.459a.179.179 0 0 0-.076-.143c-.045-.038-.113-.083-.181-.083H11.17c-.068 0-.136.045-.181.083a.21.21 0 0 0-.076.158l.128 3.443c0 .098.113.174.256.174h1.394c.136 0 .249-.076.256-.174zm-.105-7.038l5.787 10.61a.965.965 0 0 1-.844 1.424H6.213c-.339 0-.655-.181-.829-.475s-.181-.655-.015-.949l5.787-10.61a.96.96 0 0 1 1.688 0z"/></svg>