<svg xmlns="http://www.w3.org/2000/svg" width="24" height="24" viewBox="0 0 24 24"><path d="M14.115 10.2c0 .159-.141.3-.3.3s-.3-.141-.3-.3c0-.647-1.003-.9-1.5-.9-.159 0-.3-.141-.3-.3s.141-.3.3-.3c.872 0 2.1.46 2.1 1.5zm1.5 0c0-1.875-1.903-3-3.6-3s-3.6 1.125-3.6 3c0 .6.244 1.228.637 1.688.178.206.384.403.572.619.666.797 1.228 1.734 1.322 2.794h2.138c.094-1.059.656-1.997 1.322-2.794.187-.216.394-.412.572-.619.394-.46.637-1.087.637-1.688zm1.201 0c0 .966-.319 1.8-.966 2.513s-1.5 1.716-1.575 2.719c.272.159.441.46.441.769a.875.875 0 0 1-.234.6c.15.159.234.375.234.6a.898.898 0 0 1-.422.759.917.917 0 0 1 .122.441c0 .609-.478.9-1.022.9-.244.544-.788.9-1.378.9s-1.135-.356-1.378-.9c-.544 0-1.022-.291-1.022-.9a.92.92 0 0 1 .122-.441.9.9 0 0 1-.422-.759c0-.225.084-.441.234-.6a.875.875 0 0 1-.234-.6c0-.309.169-.609.441-.769-.075-1.003-.928-2.006-1.575-2.719s-.966-1.547-.966-2.513c0-2.55 2.428-4.2 4.8-4.2s4.8 1.65 4.8 4.2z"/></svg>